<?xml version="1.0" encoding="UTF-8"?>
<!DOCTYPE svg PUBLIC "-//W3C//DTD SVG 1.1//EN" "http://www.w3.org/Graphics/SVG/1.1/DTD/svg11.dtd">
<!-- Creator: CorelDRAW -->
<svg xmlns="http://www.w3.org/2000/svg" xml:space="preserve" width="69.8606mm" height="16.7157mm" style="shape-rendering:geometricPrecision; text-rendering:geometricPrecision; image-rendering:optimizeQuality; fill-rule:evenodd; clip-rule:evenodd"
viewBox="0 0 69.8606 16.7157"
 xmlns:xlink="http://www.w3.org/1999/xlink">
 <defs>
  <style type="text/css">
   <![CDATA[
    .fil1 {fill:#FEFEFE}
    .fil2 {fill:#272927}
    .fil3 {fill:#7ABA05}
    .fil0 {fill:#272927;fill-rule:nonzero}
   ]]>
  </style>
 </defs>
 <g id="Capa_x0020_2">
  <metadata id="CorelCorpID_0Corel-Layer"/>
  <g id="_253492872">
   <path id="_253495824" class="fil0" d="M49.7815 15.3544l-0.2721 0 -0.426 -0.5856 -0.1935 0.1559 -0.0977 0.4297 -0.2264 0 0.4292 -1.8567 0.2269 0 -0.277 1.1933 0.7816 -0.6692 0.2949 0 -0.76 0.6297 0.5201 0.7029zm-1.8462 -0.1421c-0.0216,0.013 -0.0505,0.031 -0.0876,0.0546 -0.037,0.0232 -0.0745,0.0435 -0.1128,0.0602 -0.0406,0.0184 -0.0859,0.0334 -0.1359,0.0456 -0.0502,0.0127 -0.108,0.0188 -0.1732,0.0188 -0.1058,0 -0.1914,-0.031 -0.2578,-0.0925 -0.0659,-0.0619 -0.0989,-0.1421 -0.0989,-0.2419 0,-0.1055 0.0232,-0.1946 0.07,-0.2676 0.0464,-0.0729 0.1153,-0.1323 0.2069,-0.1783 0.09,-0.0457 0.1983,-0.0782 0.325,-0.0986 0.1271,-0.0203 0.2716,-0.0326 0.4337,-0.0375 0.0049,-0.0224 0.009,-0.0415 0.0123,-0.0578 0.0028,-0.0163 0.0045,-0.0334 0.0045,-0.0509 0,-0.0383 -0.0074,-0.0692 -0.0224,-0.0928 -0.0155,-0.0241 -0.0367,-0.0432 -0.0648,-0.0575 -0.0277,-0.0142 -0.0603,-0.024 -0.0969,-0.0293 -0.0371,-0.0049 -0.0778,-0.0077 -0.1226,-0.0077 -0.0676,0 -0.1446,0.0109 -0.2314,0.0329 -0.0867,0.022 -0.1572,0.0436 -0.2113,0.0648l-0.0118 0 0.0444 -0.224c0.0452,-0.0122 0.1115,-0.0257 0.1991,-0.0407 0.0876,-0.0151 0.1715,-0.0228 0.2517,-0.0228 0.1654,0 0.2896,0.0261 0.3722,0.0778 0.0827,0.0517 0.1243,0.1336 0.1243,0.2455 0,0.0216 -0.0021,0.0444 -0.0058,0.0688 -0.0032,0.0241 -0.0077,0.0473 -0.0121,0.0685l-0.209 0.9045 -0.2232 0 0.0334 -0.1421zm0.1303 -0.5608c-0.1226,0.0049 -0.2313,0.0142 -0.3266,0.0281 -0.0949,0.0138 -0.1735,0.0342 -0.2354,0.0602 -0.0647,0.0265 -0.1136,0.062 -0.147,0.1068 -0.0334,0.0452 -0.0501,0.101 -0.0501,0.1678 0,0.0574 0.0195,0.1009 0.0587,0.1311 0.0391,0.0306 0.0993,0.0456 0.1812,0.0456 0.0725,0 0.1462,-0.0163 0.2216,-0.0485 0.0749,-0.0321 0.1453,-0.0708 0.2105,-0.1164l0.0871 -0.3747zm-1.1118 -0.6297l-0.3079 1.3326 -0.2244 0 0.3079 -1.3326 0.2244 0zm0.1193 -0.4561l-0.0537 0.233 -0.2529 0 0.0534 -0.233 0.2532 0zm-0.9651 1.7887l-1.0765 0 0.0383 -0.1658 0.9905 -0.9879 -0.7624 0 0.0415 -0.1789 1.0442 0 -0.037 0.1597 -0.9953 0.9942 0.7982 0 -0.0415 0.1787zm-0.9356 -1.3326l-0.0403 0.1813 -0.463 0 -0.1434 0.6146c-0.0077,0.0309 -0.0151,0.0663 -0.0212,0.1066 -0.0065,0.04 -0.0097,0.0721 -0.0097,0.0961 0,0.0579 0.0146,0.1011 0.044,0.1296 0.0297,0.0281 0.0842,0.0423 0.1637,0.0423 0.0326,0 0.0712,-0.0057 0.116,-0.0166 0.0452,-0.0115 0.0758,-0.02 0.0917,-0.0265l0.0118 0 -0.0419 0.1934c-0.0445,0.011 -0.0921,0.0204 -0.1426,0.0273 -0.0505,0.0073 -0.0953,0.0106 -0.134,0.0106 -0.1099,0 -0.1947,-0.0241 -0.2549,-0.0721 -0.0599,-0.0481 -0.09,-0.1242 -0.09,-0.2284 0,-0.0253 0.0016,-0.0506 0.0053,-0.0758 0.0036,-0.0249 0.0085,-0.0534 0.015,-0.0851l0.1658 -0.716 -0.1515 0 0.0407 -0.1813 0.1515 0 0.0892 -0.3832 0.2244 0 -0.0896 0.3832 0.463 0zm-1.2112 0.3043c0,0.0187 -0.0016,0.0448 -0.0053,0.0773 -0.0036,0.0326 -0.0085,0.0612 -0.0146,0.086l-0.2008 0.865 -0.224 0 0.1751 -0.7587c0.0098,-0.0424 0.0172,-0.079 0.022,-0.1104 0.0053,-0.0314 0.0081,-0.0627 0.0081,-0.0936 0,-0.0668 -0.0166,-0.1173 -0.0496,-0.1512 -0.033,-0.0337 -0.0925,-0.0505 -0.1784,-0.0505 -0.0603,0 -0.1271,0.0168 -0.2,0.0501 -0.0725,0.0335 -0.1438,0.0729 -0.213,0.1194l-0.2301 0.9949 -0.2244 0 0.3079 -1.3326 0.2244 0 -0.0346 0.1479c0.0851,-0.0599 0.1649,-0.1055 0.2391,-0.1373 0.0745,-0.0317 0.151,-0.0476 0.2297,-0.0476 0.1161,0 0.2064,0.0289 0.2716,0.0875 0.0648,0.0587 0.0969,0.143 0.0969,0.2538zm-1.9569 0.8862c-0.0216,0.013 -0.0505,0.031 -0.0876,0.0546 -0.037,0.0232 -0.0745,0.0435 -0.1128,0.0602 -0.0407,0.0184 -0.0859,0.0334 -0.136,0.0456 -0.0501,0.0127 -0.1079,0.0188 -0.1731,0.0188 -0.1058,0 -0.1914,-0.031 -0.2578,-0.0925 -0.0659,-0.0619 -0.099,-0.1421 -0.099,-0.2419 0,-0.1055 0.0233,-0.1946 0.0701,-0.2676 0.0464,-0.0729 0.1153,-0.1323 0.2069,-0.1783 0.09,-0.0457 0.1983,-0.0782 0.325,-0.0986 0.1271,-0.0203 0.2716,-0.0326 0.4337,-0.0375 0.0049,-0.0224 0.009,-0.0415 0.0123,-0.0578 0.0028,-0.0163 0.0045,-0.0334 0.0045,-0.0509 0,-0.0383 -0.0074,-0.0692 -0.0224,-0.0928 -0.0155,-0.0241 -0.0367,-0.0432 -0.0648,-0.0575 -0.0277,-0.0142 -0.0603,-0.024 -0.0969,-0.0293 -0.0371,-0.0049 -0.0778,-0.0077 -0.1226,-0.0077 -0.0676,0 -0.1446,0.0109 -0.2314,0.0329 -0.0867,0.022 -0.1572,0.0436 -0.2113,0.0648l-0.0118 0 0.0443 -0.224c0.0452,-0.0122 0.1116,-0.0257 0.1992,-0.0407 0.0876,-0.0151 0.1715,-0.0228 0.2517,-0.0228 0.1653,0 0.2896,0.0261 0.3722,0.0778 0.0827,0.0517 0.1242,0.1336 0.1242,0.2455 0,0.0216 -0.002,0.0444 -0.0057,0.0688 -0.0032,0.0241 -0.0077,0.0473 -0.0121,0.0685l-0.209 0.9045 -0.2232 0 0.0334 -0.1421zm0.1303 -0.5608c-0.1226,0.0049 -0.2313,0.0142 -0.3266,0.0281 -0.0949,0.0138 -0.1735,0.0342 -0.2354,0.0602 -0.0647,0.0265 -0.1136,0.062 -0.147,0.1068 -0.0334,0.0452 -0.0501,0.101 -0.0501,0.1678 0,0.0574 0.0195,0.1009 0.0587,0.1311 0.039,0.0306 0.0993,0.0456 0.1812,0.0456 0.0725,0 0.1462,-0.0163 0.2216,-0.0485 0.0749,-0.0321 0.1453,-0.0708 0.2105,-0.1164l0.0871 -0.3747zm-1.4221 0.7351c-0.0359,0.1543 -0.0994,0.2716 -0.1902,0.3519 -0.0912,0.0806 -0.2045,0.1205 -0.3397,0.1205 -0.0318,0 -0.0737,-0.0032 -0.1254,-0.0094 -0.0517,-0.0064 -0.0941,-0.0142 -0.1275,-0.024l0.0464 -0.204 0.0118 0c0.0232,0.0106 0.0505,0.0207 0.0819,0.0306 0.0314,0.0097 0.068,0.015 0.1091,0.015 0.0558,0 0.1026,-0.0086 0.1401,-0.0257 0.0379,-0.017 0.0689,-0.0427 0.0929,-0.0769 0.0228,-0.0334 0.042,-0.075 0.057,-0.125 0.0151,-0.0497 0.0285,-0.1015 0.0407,-0.1557l0.2493 -1.082 -0.2782 0 0.042 -0.1801 0.5046 0 -0.3148 1.3648zm0.3816 -1.5879l-0.2554 0 0.0537 -0.233 0.2554 0 -0.0537 0.233z"/>
   <path id="_253496328" class="fil0" d="M25.4394 13.4977l-0.4293 1.8567 -0.2244 0 0.4297 -1.8567 0.224 0zm-1.278 1.7146c-0.0216,0.013 -0.0505,0.031 -0.0876,0.0546 -0.0371,0.0232 -0.0745,0.0435 -0.1128,0.0602 -0.0407,0.0184 -0.0859,0.0334 -0.136,0.0456 -0.0501,0.0127 -0.1079,0.0188 -0.1731,0.0188 -0.1059,0 -0.1914,-0.031 -0.2578,-0.0925 -0.066,-0.0619 -0.099,-0.1421 -0.099,-0.2419 0,-0.1055 0.0232,-0.1946 0.0701,-0.2676 0.0464,-0.0729 0.1153,-0.1323 0.2069,-0.1783 0.09,-0.0457 0.1983,-0.0782 0.325,-0.0986 0.1271,-0.0203 0.2716,-0.0326 0.4337,-0.0375 0.0049,-0.0224 0.009,-0.0415 0.0122,-0.0578 0.0029,-0.0163 0.0045,-0.0334 0.0045,-0.0509 0,-0.0383 -0.0073,-0.0692 -0.0224,-0.0928 -0.0154,-0.0241 -0.0366,-0.0432 -0.0647,-0.0575 -0.0277,-0.0142 -0.0603,-0.024 -0.097,-0.0293 -0.037,-0.0049 -0.0778,-0.0077 -0.1226,-0.0077 -0.0675,0 -0.1446,0.0109 -0.2313,0.0329 -0.0867,0.022 -0.1572,0.0436 -0.2113,0.0648l-0.0119 0 0.0444 -0.224c0.0452,-0.0122 0.1116,-0.0257 0.1992,-0.0407 0.0875,-0.0151 0.1715,-0.0228 0.2516,-0.0228 0.1654,0 0.2896,0.0261 0.3723,0.0778 0.0827,0.0517 0.1242,0.1336 0.1242,0.2455 0,0.0216 -0.002,0.0444 -0.0057,0.0688 -0.0032,0.0241 -0.0077,0.0473 -0.0122,0.0685l-0.2089 0.9045 -0.2232 0 0.0334 -0.1421zm0.1303 -0.5608c-0.1226,0.0049 -0.2313,0.0142 -0.3266,0.0281 -0.0949,0.0138 -0.1735,0.0342 -0.2354,0.0602 -0.0647,0.0265 -0.1136,0.062 -0.147,0.1068 -0.0334,0.0452 -0.0501,0.101 -0.0501,0.1678 0,0.0574 0.0195,0.1009 0.0586,0.1311 0.0391,0.0306 0.0994,0.0456 0.1812,0.0456 0.0725,0 0.1462,-0.0163 0.2216,-0.0485 0.075,-0.0321 0.1454,-0.0708 0.2105,-0.1164l0.0872 -0.3747zm-1.1859 0.7029l-0.2721 0 -0.426 -0.5856 -0.1934 0.1559 -0.0978 0.4297 -0.2264 0 0.4293 -1.8567 0.2268 0 -0.2769 1.1933 0.7815 -0.6692 0.2949 0 -0.76 0.6297 0.5201 0.7029zm-2.0807 0.0322c-0.0998,0 -0.1886,-0.0122 -0.2667,-0.0371 -0.0787,-0.0244 -0.1438,-0.0513 -0.1964,-0.0798l0.0501 -0.2399 0.0118 0c0.0167,0.0143 0.0383,0.0314 0.0652,0.051 0.0265,0.0191 0.0607,0.0386 0.1018,0.0578 0.0375,0.0183 0.0802,0.0338 0.1283,0.0468 0.0481,0.0135 0.0998,0.02 0.1548,0.02 0.112,0 0.1999,-0.0208 0.2634,-0.0624 0.0636,-0.0411 0.0953,-0.1022 0.0953,-0.1824 0,-0.0419 -0.0162,-0.0745 -0.0488,-0.0973 -0.0326,-0.0224 -0.0794,-0.0412 -0.1405,-0.0554 -0.0314,-0.0069 -0.0685,-0.0151 -0.1116,-0.0237 -0.0436,-0.0089 -0.0876,-0.0191 -0.132,-0.0313 -0.0932,-0.0261 -0.1617,-0.064 -0.2065,-0.1136 -0.0444,-0.0497 -0.0668,-0.1104 -0.0668,-0.1821 0,-0.0619 0.0135,-0.1201 0.0408,-0.1743 0.0268,-0.0541 0.0672,-0.1038 0.1205,-0.149 0.0509,-0.0432 0.1157,-0.0778 0.1943,-0.1043 0.079,-0.0269 0.1662,-0.0403 0.2627,-0.0403 0.0794,0 0.1588,0.0101 0.2378,0.0301 0.0791,0.02 0.1438,0.0444 0.1939,0.0737l-0.0476 0.2293 -0.0119 0c-0.0126,-0.0106 -0.0321,-0.0244 -0.0578,-0.0419 -0.026,-0.0176 -0.0587,-0.0355 -0.0985,-0.0538 -0.0343,-0.0151 -0.0742,-0.0281 -0.1198,-0.0391 -0.046,-0.0114 -0.0932,-0.0167 -0.1429,-0.0167 -0.0994,0 -0.18,0.0208 -0.242,0.0627 -0.0622,0.0416 -0.0932,0.0986 -0.0932,0.1711 0,0.0399 0.015,0.0729 0.0456,0.0998 0.0301,0.0264 0.0761,0.0472 0.138,0.0623 0.0392,0.0097 0.0799,0.0187 0.1226,0.0268 0.0424,0.0086 0.0836,0.0176 0.1234,0.0269 0.0921,0.0232 0.1617,0.0591 0.2081,0.1076 0.0465,0.0484 0.0697,0.1091 0.0697,0.1824 0,0.0615 -0.0142,0.1214 -0.0432,0.1796 -0.0293,0.0587 -0.0713,0.1092 -0.1262,0.1523 -0.0562,0.0452 -0.1246,0.0807 -0.2049,0.1059 -0.0806,0.0257 -0.1706,0.0383 -0.2708,0.0383zm-0.5502 -1.3648l-0.3079 1.3326 -0.2244 0 0.0346 -0.1478c-0.0852,0.0578 -0.1646,0.1034 -0.2379,0.136 -0.0737,0.0326 -0.1515,0.0489 -0.2333,0.0489 -0.1145,0 -0.2041,-0.0289 -0.2684,-0.0868 -0.0644,-0.0574 -0.0969,-0.1417 -0.0969,-0.2521 0,-0.0273 0.002,-0.0533 0.0057,-0.079 0.0032,-0.0252 0.0085,-0.0541 0.0146,-0.0867l0.1992 -0.8651 0.2244 0 -0.1752 0.7588c-0.0073,0.0309 -0.0142,0.0664 -0.0203,0.1063 -0.0065,0.0395 -0.0098,0.0709 -0.0098,0.0941 0,0.0684 0.0175,0.1197 0.0521,0.1539 0.0346,0.0342 0.0937,0.0513 0.1772,0.0513 0.0587,0 0.1263,-0.0171 0.202,-0.0513 0.0761,-0.0342 0.1462,-0.0737 0.211,-0.1181l0.2288 -0.995 0.2245 0zm-1.3603 -0.4439l-0.0464 0.2016 -0.9343 0 -0.1149 0.501 0.9343 0 -0.0464 0.2003 -0.9343 0 -0.1552 0.6721 0.9343 0 -0.0464 0.2015 -1.1705 0 0.4093 -1.7765 1.1705 0z"/>
   <g>
    <path id="trapu" class="fil0" d="M5.9689 3.1404l1.2256 -0.4657c-0.3576,1.3767 -0.4698,1.8245 -0.5475,2.1368l18.6859 0c-0.086,0.1769 -0.1659,0.3573 -0.2398,0.5407l-18.5823 0c-0.0975,0.379 -0.2632,1.0236 -0.6733,2.5521 -0.2061,0.768 -0.3157,1.3009 -0.3157,1.6001 0,0.1379 0.0303,0.2355 0.0895,0.2966 0.0592,0.0611 0.1394,0.0937 0.2419,0.0937 0.1605,0 0.4022,-0.0952 0.7312,-0.2836 0.4328,-0.2479 0.8442,-0.5308 1.2334,-0.8456l0.2946 0.3512c-1.1257,0.8378 -1.878,1.3512 -2.2592,1.5403 -0.378,0.1874 -0.6864,0.281 -0.9152,0.281 -0.192,0 -0.3419,-0.0677 -0.4524,-0.2056 -0.1104,-0.1379 -0.1656,-0.3616 -0.1656,-0.6712 0,-0.3669 0.0961,-0.9246 0.2919,-1.6756 0.5402,-2.0715 0.6539,-2.5037 0.7891,-3.0334l-1.2415 0 0.1368 -0.5407 1.2429 0c0.0904,-0.3537 0.217,-0.8472 0.4297,-1.6711zm35.0526 1.6711l21.2962 0c0.2554,-1.0412 0.4338,-1.7233 0.5366,-2.0458 0.1519,-0.4759 0.3344,-0.8719 0.5471,-1.1812 0.2126,-0.3092 0.4813,-0.5854 0.8021,-0.8299 0.3209,-0.2446 0.6662,-0.4311 1.0388,-0.5594 0.3735,-0.1286 0.6996,-0.1952 0.9836,-0.1952 0.2657,0 0.4658,0.05 0.597,0.1536 0.1284,0.1012 0.1946,0.2341 0.1946,0.4032 0,0.1405 -0.0582,0.2632 -0.1762,0.3643 -0.1179,0.1011 -0.2682,0.1535 -0.4471,0.1535 -0.2261,0 -0.5692,-0.0344 -1.0256,-0.1145 -0.1478,-0.0259 -0.2788,-0.0468 -0.3919,-0.0468 -0.1604,0 -0.3102,0.0582 -0.4497,0.1691 -0.1411,0.1121 -0.2683,0.3122 -0.3787,0.5984 -0.1104,0.2862 -0.2627,0.8834 -0.4655,1.7874l-0.5471 2.4379c0.4919,-0.5516 1.0044,-0.9823 1.5333,-1.28 0.3987,-0.2245 0.7837,-0.3357 1.1467,-0.3357 0.2577,0 0.476,0.0963 0.6522,0.2862 0.1762,0.1899 0.2656,0.4319 0.2656,0.7207 0,0.5438 -0.2844,1.0307 -0.8547,1.457 -0.5704,0.4263 -1.4412,0.6556 -2.6115,0.6843 0.3945,0.1743 0.7097,0.3627 0.9467,0.5697 0.2357,0.206 0.4679,0.4899 0.697,0.8534 0.2278,0.3617 0.525,0.9703 0.8836,1.8239 0.427,1.0164 0.8228,1.6921 1.1862,2.0294 0.3591,0.3333 0.7547,0.5021 1.1861,0.5021 0.2524,0 0.4601,-0.0555 0.6233,-0.1639 0.1648,-0.1095 0.2471,-0.2186 0.2471,-0.3304 0,-0.0728 -0.0252,-0.1701 -0.0762,-0.2914 -0.0561,-0.133 -0.0868,-0.2446 -0.0868,-0.3357 0,-0.117 0.0477,-0.2215 0.1394,-0.3121 0.0916,-0.0908 0.1999,-0.1379 0.3235,-0.1379 0.1446,0 0.2686,0.0575 0.3708,0.1717 0.1022,0.1141 0.1526,0.2654 0.1526,0.4553 0,0.3642 -0.1681,0.6906 -0.5076,0.9756 -0.3383,0.2841 -0.7812,0.4268 -1.3255,0.4268 -0.5601,0 -1.0606,-0.1404 -1.5017,-0.4189 -0.1783,-0.1125 -0.3519,-0.2541 -0.5209,-0.4216l-25.2891 0c0.103,-0.1764 0.1997,-0.3567 0.2901,-0.5407l24.537 0c-0.0875,-0.1187 -0.1746,-0.2454 -0.2585,-0.3802 -0.2212,-0.3557 -0.6064,-1.1655 -1.1545,-2.4327 -0.2585,-0.5976 -0.4906,-1.0482 -0.6943,-1.3478 -0.1585,-0.233 -0.3761,-0.4657 -0.6549,-0.6946l-0.7469 3.286 -1.1493 0 1.0099 -4.155c0.1074,-0.4418 0.2022,-0.8482 0.2916,-1.2174l-20.9247 0c-0.0739,-0.1834 -0.1538,-0.3638 -0.2398,-0.5407zm-15.3829 8.0231l-9.9373 0 0.1555 -0.5407 9.4917 0c0.0904,0.184 0.1871,0.3643 0.2901,0.5407zm-10.6242 -4.7535l-0.1769 -0.1795c0.2738,-0.3227 0.5468,-0.563 0.8168,-0.7169 0.2707,-0.1542 0.5046,-0.2328 0.7031,-0.2328 0.0753,0 0.1343,0.0201 0.1769,0.0563 0.0442,0.0376 0.0661,0.0913 0.0661,0.1628 0,0.0868 -0.0098,0.1754 -0.0292,0.2648 -0.0197,0.0909 -0.08,0.306 -0.1831,0.6453 0.46,-0.4551 0.775,-0.7359 0.943,-0.8431 0.2818,-0.1796 0.54,-0.2724 0.7739,-0.2724 0.1538,0 0.283,0.0723 0.3876,0.2145 0.1052,0.143 0.1584,0.3577 0.1584,0.6469 0,0.7183 -0.2269,1.4033 -0.6799,2.05 -0.4537,0.6476 -0.9569,0.9724 -1.5061,0.9724 -0.2168,0 -0.4323,-0.0578 -0.6491,-0.1735l-0.1919 0.737 -0.388 1.4161c-0.0234,0.0859 -0.0354,0.1614 -0.0354,0.2177 0,0.1096 0.0431,0.1889 0.1261,0.2359 0.1287,0.0727 0.4016,0.1354 0.8154,0.1841l-0.0585 0.2222c-0.483,-0.0381 -0.8645,-0.0578 -1.1399,-0.0578 -0.2861,0 -0.6553,0.0197 -1.1092,0.0578l0.0585 -0.2222c0.2292,-0.0243 0.3949,-0.0878 0.4985,-0.1887 0.102,-0.0994 0.1814,-0.2812 0.2492,-0.5388l0.3879 -1.4734 0.6257 -2.5927c0.1521,-0.6301 0.2293,-0.9801 0.2293,-1.0516 0,-0.0776 -0.037,-0.1157 -0.1124,-0.1157 -0.1323,0 -0.3845,0.1918 -0.7568,0.5753zm0.9107 2.1033c0.2369,0.2358 0.48,0.353 0.7292,0.353 0.3614,0 0.6773,-0.2789 0.9491,-0.8339 0.2719,-0.5551 0.4077,-1.0989 0.4077,-1.6269 0,-0.1705 -0.0385,-0.2991 -0.1154,-0.3866 -0.0761,-0.0867 -0.1784,-0.1309 -0.3077,-0.1309 -0.1446,0 -0.308,0.0705 -0.4876,0.21 -0.278,0.2158 -0.4939,0.4319 -0.64,0.6453 -0.1054,0.1539 -0.2033,0.4243 -0.2969,0.8036l-0.2384 0.9664zm-1.7967 2.6502l-14.1284 0 0.1388 -0.5407 14.1451 0 -0.1555 0.5407zm48.7128 -5.716c0.6943,0.0051 1.2575,-0.0603 1.6858,-0.1978 0.4283,-0.1375 0.7333,-0.321 0.9152,-0.549 0.183,-0.2292 0.2735,-0.4761 0.2735,-0.7467 0,-0.1925 -0.0529,-0.349 -0.1578,-0.4657 -0.1048,-0.1168 -0.2314,-0.1743 -0.3813,-0.1743 -0.4813,0 -1.2229,0.5333 -2.2197,1.6001l-0.1157 0.5334zm-2.8691 -0.22l0.2969 -0.0624 -0.3385 1.1293c-0.1337,0.4466 -0.2618,0.9652 -0.383,1.5507 -0.0657,0.3177 -0.0984,0.5236 -0.0984,0.6149 0,0.0928 0.0369,0.1385 0.1122,0.1385 0.0477,0 0.1254,-0.0304 0.2308,-0.0929 0.186,-0.1102 0.3646,-0.2465 0.5354,-0.4109l0.1446 0.1735c-0.3431,0.309 -0.5619,0.4982 -0.6584,0.5631 -0.1919,0.1291 -0.3758,0.2271 -0.5492,0.2892 -0.1135,0.0406 -0.2262,0.0624 -0.3339,0.0624 -0.0784,0 -0.1373,-0.0187 -0.1753,-0.0533 -0.0397,-0.0361 -0.0585,-0.0882 -0.0585,-0.1567 0,-0.0442 0.0123,-0.105 0.0354,-0.1827l0.18 -0.6057c-0.2585,0.3059 -0.5671,0.5688 -0.9231,0.7884 -0.22,0.1357 -0.4215,0.2054 -0.6045,0.2054 -0.1738,0 -0.3082,-0.0611 -0.4015,-0.1826 -0.126,-0.1639 -0.1892,-0.3774 -0.1892,-0.6422 0,-0.315 0.0861,-0.6651 0.2553,-1.0516 0.1692,-0.3866 0.3977,-0.7382 0.6831,-1.0532 0.2846,-0.3142 0.5859,-0.5479 0.9014,-0.6955 0.2422,-0.1133 0.5554,-0.1689 0.9369,-0.1689 0.0968,0 0.1938,0.0061 0.2938,0.0182l0.1077 -0.175zm-0.5584 0.6833c-0.1631,-0.0334 -0.3,-0.0502 -0.4108,-0.0502 -0.2707,0 -0.5068,0.0745 -0.7076,0.2207 -0.2015,0.1468 -0.3887,0.4126 -0.5615,0.7944 -0.1726,0.3814 -0.2585,0.7625 -0.2585,1.1429 0,0.2024 0.0347,0.3486 0.1031,0.4368 0.0692,0.0891 0.16,0.134 0.2708,0.134 0.2076,0 0.4295,-0.11 0.6676,-0.3318 0.2365,-0.2203 0.4095,-0.5407 0.5215,-0.9557l0.3754 -1.3911zm-4.449 3.1427l-0.6722 0 0.3153 -1.1992c0.1548,-0.5888 0.2886,-1.1476 0.4016,-1.6771 0.0277,-0.1303 0.0399,-0.2116 0.0399,-0.2451 0,-0.0715 -0.0323,-0.1065 -0.0984,-0.1065 -0.0446,0 -0.1145,0.0305 -0.2077,0.0913 -0.0921,0.0602 -0.2615,0.2116 -0.5046,0.452l-0.14 -0.1552c0.2892,-0.3059 0.5768,-0.537 0.863,-0.6894 0.2868,-0.1527 0.5077,-0.2298 0.6615,-0.2298 0.0539,0 0.0965,0.0132 0.1277,0.038 0.0311,0.0247 0.0477,0.0579 0.0477,0.0959 0,0.0395 -0.0185,0.1427 -0.0585,0.3074l-0.1938 0.799c0.3031,-0.4733 0.6465,-0.877 1.0276,-1.2129 0.1827,-0.161 0.3354,-0.2405 0.4585,-0.2405 0.0907,0 0.1665,0.0293 0.2261,0.0868 0.0596,0.0574 0.0908,0.1248 0.0908,0.2024 0,0.0806 -0.03,0.1491 -0.0892,0.2054 -0.0585,0.0556 -0.2051,0.1234 -0.4385,0.2009 -0.2227,0.0739 -0.4039,0.1628 -0.543,0.2663 -0.14,0.1042 -0.2939,0.2633 -0.46,0.4779 -0.1661,0.2145 -0.2832,0.4007 -0.3492,0.56 -0.0655,0.158 -0.1657,0.5295 -0.3015,1.108l-0.2031 0.8644zm-2.7675 0l-0.6723 0 0.3154 -1.1992c0.1548,-0.5888 0.2886,-1.1476 0.4015,-1.6771 0.0278,-0.1303 0.04,-0.2116 0.04,-0.2451 0,-0.0715 -0.0323,-0.1065 -0.0985,-0.1065 -0.0445,0 -0.1144,0.0305 -0.2076,0.0913 -0.0922,0.0602 -0.2616,0.2116 -0.5046,0.452l-0.14 -0.1552c0.2892,-0.3059 0.5768,-0.537 0.863,-0.6894 0.2868,-0.1527 0.5077,-0.2298 0.6615,-0.2298 0.0538,0 0.0965,0.0132 0.1277,0.038 0.031,0.0247 0.0477,0.0579 0.0477,0.0959 0,0.0395 -0.0186,0.1427 -0.0585,0.3074l-0.1938 0.799c0.3031,-0.4733 0.6464,-0.877 1.0276,-1.2129 0.1826,-0.161 0.3354,-0.2405 0.4584,-0.2405 0.0908,0 0.1666,0.0293 0.2261,0.0868 0.0597,0.0574 0.0908,0.1248 0.0908,0.2024 0,0.0806 -0.03,0.1491 -0.0892,0.2054 -0.0584,0.0556 -0.2051,0.1234 -0.4384,0.2009 -0.2227,0.0739 -0.4039,0.1628 -0.543,0.2663 -0.1401,0.1042 -0.294,0.2633 -0.4601,0.4779 -0.166,0.2145 -0.2831,0.4007 -0.3491,0.56 -0.0655,0.158 -0.1657,0.5295 -0.3015,1.108l-0.2031 0.8644zm-1.6368 -3.826l0.2969 -0.0624 -0.3384 1.1293c-0.1338,0.4466 -0.2619,0.9652 -0.3831,1.5507 -0.0657,0.3177 -0.0984,0.5236 -0.0984,0.6149 0,0.0928 0.0369,0.1385 0.1122,0.1385 0.0477,0 0.1254,-0.0304 0.2308,-0.0929 0.186,-0.1102 0.3646,-0.2465 0.5354,-0.4109l0.1446 0.1735c-0.3431,0.309 -0.5619,0.4982 -0.6584,0.5631 -0.1919,0.1291 -0.3758,0.2271 -0.5492,0.2892 -0.1135,0.0406 -0.2262,0.0624 -0.3339,0.0624 -0.0784,0 -0.1373,-0.0187 -0.1753,-0.0533 -0.0396,-0.0361 -0.0585,-0.0882 -0.0585,-0.1567 0,-0.0442 0.0123,-0.105 0.0354,-0.1827l0.18 -0.6057c-0.2585,0.3059 -0.567,0.5688 -0.9231,0.7884 -0.22,0.1357 -0.4215,0.2054 -0.6045,0.2054 -0.1738,0 -0.3082,-0.0611 -0.4015,-0.1826 -0.126,-0.1639 -0.1892,-0.3774 -0.1892,-0.6422 0,-0.315 0.0861,-0.6651 0.2553,-1.0516 0.1692,-0.3866 0.3977,-0.7382 0.6831,-1.0532 0.2846,-0.3142 0.5859,-0.5479 0.9014,-0.6955 0.2422,-0.1133 0.5554,-0.1689 0.9369,-0.1689 0.0968,0 0.1938,0.0061 0.2938,0.0182l0.1077 -0.175zm-0.5584 0.6833c-0.1631,-0.0334 -0.3,-0.0502 -0.4107,-0.0502 -0.2708,0 -0.5069,0.0745 -0.7077,0.2207 -0.2015,0.1468 -0.3887,0.4126 -0.5615,0.7944 -0.1726,0.3814 -0.2585,0.7625 -0.2585,1.1429 0,0.2024 0.0347,0.3486 0.1031,0.4368 0.0692,0.0891 0.16,0.134 0.2708,0.134 0.2076,0 0.4296,-0.11 0.6676,-0.3318 0.2365,-0.2203 0.4095,-0.5407 0.5215,-0.9557l0.3754 -1.3911zm-3.729 -0.143c-0.2723,0.0746 -0.523,0.1111 -0.7522,0.1111 -0.1262,0 -0.2667,-0.0074 -0.4185,-0.0229 -0.2135,-0.0218 -0.3569,-0.035 -0.4292,-0.035 -0.0892,0 -0.1585,0.0222 -0.2061,0.0625 -0.0485,0.041 -0.0723,0.0943 -0.0723,0.1597 0,0.102 0.0544,0.1555 0.1615,0.1659 0.1352,0.0132 0.2031,0.0761 0.2031,0.1827 0,0.0502 -0.0224,0.0958 -0.0631,0.1354 -0.0416,0.0403 -0.0907,0.0609 -0.1446,0.0609 -0.1077,0 -0.2085,-0.0533 -0.3,-0.1583 -0.0908,-0.1043 -0.1369,-0.2375 -0.1369,-0.3942 0,-0.2023 0.0862,-0.3759 0.2569,-0.522 0.1707,-0.146 0.383,-0.2191 0.6353,-0.2191 0.1323,0 0.3113,0.0179 0.5369,0.0532 0.3629,0.0568 0.6247,0.0852 0.783,0.0852 0.1631,0 0.3152,-0.0543 0.4554,-0.1597 0.0652,-0.0491 0.1215,-0.0715 0.163,-0.0715 0.0354,0 0.0662,0.0114 0.0924,0.0334 0.0253,0.0214 0.0384,0.0441 0.0384,0.0639 0,0.0305 -0.0183,0.062 -0.0492,0.0989 -0.1036,0.1237 -0.3362,0.3599 -0.7,0.7047l-1.3968 1.3241c-0.4069,0.3857 -0.7476,0.6985 -1.0184,0.9359 0.1724,-0.0183 0.3046,-0.0274 0.4015,-0.0274 0.1354,0 0.2591,0.0119 0.3692,0.0335 0.1105,0.0217 0.2922,0.0719 0.5369,0.1537 0.3222,0.1077 0.5831,0.1659 0.7846,0.1659 0.1261,0 0.2238,-0.029 0.2908,-0.0868 0.066,-0.057 0.0999,-0.1324 0.0999,-0.2207 0,-0.0517 -0.0246,-0.1215 -0.0707,-0.2145 -0.044,-0.0888 -0.0631,-0.1583 -0.0631,-0.2055 0,-0.0715 0.0231,-0.1331 0.0708,-0.1826 0.0484,-0.0502 0.1092,-0.0761 0.1815,-0.0761 0.0861,0 0.16,0.035 0.2184,0.105 0.0585,0.07 0.0877,0.1598 0.0877,0.2694 0,0.1674 -0.0619,0.3428 -0.1846,0.525 -0.1227,0.1823 -0.2792,0.3224 -0.4646,0.4201 -0.1861,0.0979 -0.4169,0.1476 -0.6892,0.1476 -0.226,0 -0.5552,-0.0658 -0.9876,-0.1917 -0.3591,-0.1047 -0.6245,-0.1553 -0.7938,-0.1553 -0.1015,0 -0.2215,0.0522 -0.3553,0.1598 -0.0793,0.0636 -0.1462,0.0989 -0.2031,0.0989 -0.1108,0 -0.1661,-0.0274 -0.1661,-0.0806 0,-0.0503 0.0317,-0.1111 0.0938,-0.1826 0.1694,-0.1956 0.5961,-0.6027 1.2799,-1.2176 0.463,-0.4162 0.8696,-0.7955 1.2169,-1.1368l0.7076 -0.6955zm-24.2191 -0.3439l0.6399 0 -0.423 1.5568c-0.2452,0.9026 -0.3738,1.4169 -0.3738,1.5417 0,0.0562 0.013,0.1005 0.04,0.1294 0.0276,0.0296 0.0569,0.0456 0.0907,0.0456 0.0508,0 0.1124,-0.0216 0.18,-0.067 0.0992,-0.0664 0.2861,-0.2419 0.5631,-0.5174l0.1492 0.1643c-0.6046,0.621 -1.0492,0.933 -1.3338,0.933 -0.0969,0 -0.1785,-0.0367 -0.2461,-0.1096 -0.0676,-0.073 -0.1016,-0.1766 -0.1016,-0.3105 0,-0.1537 0.0324,-0.3606 0.0985,-0.6193 -0.2661,0.3028 -0.5975,0.5693 -0.9907,0.7974 -0.2612,0.1515 -0.4877,0.2283 -0.6799,0.2283 -0.1062,0 -0.1897,-0.0354 -0.2493,-0.1035 -0.0595,-0.068 -0.0892,-0.1766 -0.0892,-0.3257 0,-0.1156 0.0129,-0.2412 0.04,-0.3744 0.0381,-0.187 0.1402,-0.5632 0.2985,-1.1277 0.2008,-0.716 0.3015,-1.146 0.3015,-1.2875 0,-0.0837 -0.0308,-0.1263 -0.0908,-0.1263 -0.0538,0 -0.1279,0.0297 -0.22,0.0837 -0.0931,0.0547 -0.2523,0.1872 -0.4784,0.3987l-0.1985 -0.1567c0.4031,-0.3562 0.7111,-0.5912 0.9215,-0.7016 0.2117,-0.111 0.3831,-0.1675 0.5123,-0.1675 0.0723,0 0.1316,0.0261 0.1754,0.0777 0.0445,0.0524 0.0676,0.1339 0.0676,0.2435 0,0.2054 -0.1097,0.7092 -0.3245,1.5112 -0.1935,0.7221 -0.2877,1.1339 -0.2877,1.2358 0,0.0624 0.02,0.1165 0.06,0.1598 0.0406,0.044 0.0846,0.0669 0.1338,0.0669 0.1677,0 0.4062,-0.1378 0.7153,-0.4124 0.31,-0.2754 0.5146,-0.5868 0.6092,-0.939l0.4908 -1.8277zm-7.9102 -0.1964l0.2969 -0.0624 -0.3385 1.1293c-0.1337,0.4465 -0.2619,0.9652 -0.383,1.5507 -0.0657,0.3176 -0.0984,0.5236 -0.0984,0.6149 0,0.0928 0.0369,0.1385 0.1122,0.1385 0.0477,0 0.1254,-0.0305 0.2308,-0.0929 0.186,-0.1102 0.3646,-0.2465 0.5354,-0.4109l0.1446 0.1735c-0.3431,0.309 -0.562,0.4983 -0.6585,0.5631 -0.1918,0.1291 -0.3758,0.2271 -0.5492,0.2892 -0.1133,0.0406 -0.2261,0.0624 -0.3338,0.0624 -0.0785,0 -0.1373,-0.0187 -0.1753,-0.0533 -0.0396,-0.0361 -0.0585,-0.0882 -0.0585,-0.1567 0,-0.0442 0.0123,-0.105 0.0354,-0.1827l0.18 -0.6057c-0.2585,0.3059 -0.5671,0.5688 -0.9231,0.7884 -0.22,0.1357 -0.4215,0.2054 -0.6045,0.2054 -0.1738,0 -0.3083,-0.0612 -0.4016,-0.1826 -0.1258,-0.1639 -0.1891,-0.3774 -0.1891,-0.6422 0,-0.315 0.0861,-0.6651 0.2553,-1.0516 0.1692,-0.3866 0.3978,-0.7382 0.683,-1.0532 0.2846,-0.3142 0.5861,-0.5479 0.9015,-0.6955 0.2421,-0.1133 0.5554,-0.1689 0.9369,-0.1689 0.0968,0 0.1938,0.0061 0.2938,0.0182l0.1077 -0.175zm-0.5584 0.6833c-0.1631,-0.0334 -0.3,-0.0502 -0.4108,-0.0502 -0.2707,0 -0.5069,0.0746 -0.7076,0.2207 -0.2015,0.1467 -0.3888,0.4126 -0.5615,0.7944 -0.1725,0.3813 -0.2585,0.7625 -0.2585,1.1429 0,0.2024 0.0347,0.3487 0.1031,0.4368 0.0692,0.0891 0.16,0.134 0.2707,0.134 0.2077,0 0.4297,-0.11 0.6677,-0.3318 0.2364,-0.2203 0.4095,-0.5407 0.5215,-0.9557l0.3754 -1.3911zm-4.449 3.1427l-0.6722 0 0.3153 -1.1992c0.1548,-0.5888 0.2887,-1.1477 0.4016,-1.6771 0.0277,-0.1303 0.0399,-0.2116 0.0399,-0.2451 0,-0.0715 -0.0323,-0.1065 -0.0984,-0.1065 -0.0447,0 -0.1146,0.0305 -0.2077,0.0913 -0.0921,0.0601 -0.2616,0.2116 -0.5046,0.452l-0.14 -0.1552c0.2892,-0.3059 0.5769,-0.5371 0.863,-0.6894 0.2868,-0.1527 0.5077,-0.2298 0.6615,-0.2298 0.0539,0 0.0965,0.0132 0.1277,0.038 0.031,0.0246 0.0477,0.0579 0.0477,0.0959 0,0.0395 -0.0185,0.1428 -0.0585,0.3074l-0.1938 0.799c0.3031,-0.4733 0.6465,-0.8771 1.0276,-1.2129 0.1826,-0.1609 0.3354,-0.2405 0.4585,-0.2405 0.0907,0 0.1666,0.0294 0.2261,0.0868 0.0596,0.0573 0.0908,0.1248 0.0908,0.2024 0,0.0806 -0.0301,0.1491 -0.0892,0.2054 -0.0585,0.0555 -0.2052,0.1235 -0.4385,0.2009 -0.2227,0.0739 -0.4039,0.1628 -0.543,0.2663 -0.14,0.1041 -0.294,0.2633 -0.46,0.4779 -0.1661,0.2145 -0.2832,0.4008 -0.3492,0.56 -0.0655,0.158 -0.1657,0.5296 -0.3015,1.108l-0.2031 0.8644z"/>
    <ellipse id="_253494672" class="fil1" cx="33.1774" cy="8.53707" rx="8.04666" ry="7.9605"/>
    <path id="picos" class="fil2" d="M33.1774 1.0965c4.1531,0 7.5211,3.3319 7.5211,7.4406 0,4.1086 -3.368,7.4405 -7.5211,7.4405 -4.1531,0 -7.5211,-3.3319 -7.5211,-7.4405 0,-4.1087 3.368,-7.4406 7.5211,-7.4406zm6.6401 4.5614l-1.431 -0.5856 0.0153 -1.5056c0.5881,0.605 1.0699,1.3119 1.4157,2.0912zm-1.6214 -2.2945l-1.5464 0.0005 -0.5692 -1.399c0.7882,0.3414 1.5035,0.8171 2.1156,1.3985zm-2.3804 -1.5073l-1.4315 0.5871 -1.0656 -1.0756c0.8796,0.0167 1.7209,0.1881 2.4971,0.4885zm-2.7872 -0.4884l-1.0934 1.0824 -1.4032 -0.5913c0.776,-0.3011 1.6171,-0.4735 2.4966,-0.4911zm-2.7612 0.6002l-0.5923 1.4159 -1.522 -0.0149c0.6117,-0.5821 1.3264,-1.0588 2.1143,-1.401zm-2.3196 1.6042l0.0005 1.5299 -1.4143 0.5634c0.3451,-0.7799 0.826,-1.4876 1.4138,-2.0933zm-1.5237 2.355l0.5934 1.4161 -1.0871 1.0545c0.0168,-0.8702 0.1901,-1.7027 0.4937,-2.4706zm-0.4936 2.7573l1.0941 1.0817 -0.5976 1.3883c-0.3044,-0.7677 -0.4787,-1.5998 -0.4965,-2.47zm0.6068 2.7317l1.4311 0.5859 -0.0181 1.5026c-0.5869,-0.6045 -1.0677,-1.3104 -1.413,-2.0885zm1.6216 2.2947l1.5463 -0.0005 0.5691 1.3989c-0.7881,-0.3414 -1.5033,-0.817 -2.1154,-1.3984zm2.3805 1.5073l1.4313 -0.587 1.0652 1.0754c-0.8794,-0.0167 -1.7205,-0.188 -2.4965,-0.4884zm2.7871 0.4883l1.0933 -1.0823 1.4028 0.5914c-0.7758,0.301 -1.6168,0.4734 -2.4961,0.4909zm2.7611 -0.6002l0.5922 -1.4158 1.5217 0.0152c-0.6115,0.5819 -1.3261,1.0585 -2.1139,1.4006zm2.3196 -1.6042l-0.0005 -1.5298 1.414 -0.5629c-0.3451,0.7797 -0.8259,1.4872 -1.4135,2.0927zm1.5236 -2.355l-0.5934 -1.416 1.0871 -1.0541c-0.0168,0.8701 -0.1901,1.7024 -0.4937,2.4701zm0.4936 -2.7572l-1.094 -1.0817 0.5992 -1.3843c0.3034,0.7665 0.4771,1.5974 0.4948,2.466zm-7.2469 -8.0313c4.565,0 8.2671,3.6624 8.2671,8.1786 0,4.5162 -3.7021,8.1786 -8.2671,8.1786 -4.5651,0 -8.2671,-3.6624 -8.2671,-8.1786 0,-4.5162 3.702,-8.1786 8.2671,-8.1786z"/>
    <path id="aspas" class="fil3" d="M39.0641 9.605c-2.0139,-0.9042 -4.1448,-1.2609 -5.8864,-1.0679l0 0.0001c2.0245,0.1118 4.439,1.0353 6.4706,2.6375l-1.4453 0.5776c-1.5108,-1.5978 -3.3416,-2.734 -5.0253,-3.215l0 0c1.8271,0.8698 3.7005,2.637 4.9578,4.8864l-1.5587 -0.0135c-0.7778,-2.0481 -2.0297,-3.791 -3.3992,-4.8728l0 0c1.3516,1.4953 2.3988,3.8372 2.6902,6.3914l-1.4349 -0.6026c0.0738,-2.1867 -0.4086,-4.2708 -1.2554,-5.7887l0 0c0.6703,1.8932 0.7318,4.4533 0.013,6.9233l-1.0925 -1.0999c0.914,-1.9923 1.2745,-4.1004 1.0794,-5.8234l-0.0001 0c-0.113,2.0029 -1.0465,4.3913 -2.666,6.4012l-0.5839 -1.4298c1.6151,-1.4946 2.7636,-3.3057 3.2498,-4.9714l0 0c-0.8792,1.8075 -2.6655,3.6608 -4.9392,4.9046l0.0136 -1.5421c2.0703,-0.7694 3.832,-2.0078 4.9255,-3.3626l0 0c-1.5115,1.3371 -3.8787,2.373 -6.4605,2.6613l0.6091 -1.4195c2.2103,0.073 4.317,-0.4042 5.8513,-1.2419l0 -0.0001c-1.9137,0.6632 -4.5014,0.7241 -6.9982,0.013l1.1118 -1.0809c2.0139,0.9042 4.1448,1.2609 5.8864,1.0679l0 -0.0001c-2.0244,-0.1118 -4.4387,-1.0352 -6.4703,-2.6374l1.4451 -0.5777c1.5108,1.5977 3.3415,2.734 5.0252,3.215l0 -0.0001c-1.8271,-0.8697 -3.7004,-2.6369 -4.9576,-4.8863l1.5587 0.0135c0.7778,2.0481 2.0295,3.791 3.399,4.8728l0.0001 -0.0001c-1.3517,-1.4952 -2.3987,-3.8371 -2.6902,-6.3912l1.4349 0.6025c-0.0737,2.1867 0.4086,4.2708 1.2553,5.7887l0.0001 0c-0.6703,-1.8932 -0.7318,-4.4532 -0.013,-6.9232l1.0925 1.0999c-0.9139,1.9923 -1.2746,4.1003 -1.0794,5.8233l0 0c0.1131,-2.0028 1.0466,-4.3913 2.6661,-6.4012l0.5839 1.4299c-1.615,1.4946 -2.7637,3.3056 -3.2499,4.9713l0.0001 0c0.8791,-1.8075 2.6655,-3.6608 4.9392,-4.9045l-0.0136 1.542c-2.0703,0.7694 -3.8321,2.0078 -4.9256,3.3626l0.0001 0c1.5114,-1.3371 3.8787,-2.373 6.4604,-2.6613l-0.6091 1.4195c-2.2103,-0.0729 -4.3169,0.4042 -5.8513,1.2419l0 0.0001c1.9137,-0.6632 4.5014,-0.724 6.9982,-0.0129l-1.1118 1.0808z"/>
   </g>
  </g>
 </g>
</svg>
